<svg xmlns="http://www.w3.org/2000/svg" viewBox="0 0 100 100">
  <path d="M56.59 6.86c-16.781-1.438-33.602 7.038-41.996 22.823a43.176 43.176 0 0 0-4.902 16.445l-.176 1.993 3.984.355.176-1.992a39.095 39.095 0 0 1 4.453-14.926C28.31 12.413 51.992 5.124 71.176 15.23 90.36 25.335 97.742 48.996 87.711 68.218c-10.027 19.215-33.62 26.699-53.18 16.602-9.703-5.207-16.332-13.73-19.28-23.355l-.583-1.918-3.824 1.172.582 1.91c3.25 10.602 10.578 20.008 21.215 25.719.012.008.02.012.031.016 21.45 11.09 47.562 2.84 58.59-18.293 11.027-21.133 2.871-47.266-18.219-58.375A43.152 43.152 0 0 0 56.59 6.86z"/>
  <path d="M29.336 34.293a2.004 2.004 0 0 0-2.867 1.809v29.004a2 2 0 0 0 1.219 1.835L52.055 77.38a1.989 1.989 0 0 0 1.582 0l24.367-10.438a2.002 2.002 0 0 0 1.21-1.835V36.102a2.003 2.003 0 0 0-2.859-1.809L52.843 45.484zm1.137 4.969 21.52 10.246-.004-.004a1.998 1.998 0 0 0 1.715 0l21.52-10.246V63.78l-22.375 9.582-22.375-9.582z"/>
  <path d="M52.848 45.695a2.004 2.004 0 0 0-2.004 2v27.848a1.999 1.999 0 0 0 2.004 2 2.005 2.005 0 0 0 2-2V47.695a2 2 0 0 0-2-2zm-.793-23.039L27.688 33.101a2.003 2.003 0 0 0 .04 3.695 2.01 2.01 0 0 0 1.534-.015l23.586-10.105L76.434 36.78h-.004a2.006 2.006 0 0 0 2.629-1.059 2.003 2.003 0 0 0-1.054-2.621L53.638 22.656a2.022 2.022 0 0 0-1.582 0zM19.488 38.859l-1.41 1.418-5.524 5.582-4.503-4.453-1.418-1.402-2.813 2.843 1.418 1.403 5.922 5.86c.785.776 2.05.769 2.828-.013l6.93-6.996 1.41-1.426z"/>
  <!-- Dollar sign in the middle, above package -->
  <g transform="translate(53, 53) scale(0.35, 0.32)">
    <!-- White outline (thicker, no fill) -->
    <path d="M74.285 65.715c0 10.242-8.332 18.57-18.57 18.57h-2.856v8.57a2.854 2.854 0 1 1-5.711 0v-8.57H31.433a2.854 2.854 0 0 1-2.855-2.856 2.854 2.854 0 0 1 2.856-2.855h24.284c7.09 0 12.855-5.77 12.855-12.855 0-7.09-5.765-12.855-12.854-12.855h-11.43c-10.239 0-18.57-8.332-18.57-18.57 0-10.242 8.331-18.57 18.57-18.57h2.855v-8.57a2.854 2.854 0 1 1 5.711 0v8.57H68.57a2.855 2.855 0 1 1 0 5.711H44.285c-7.09 0-12.855 5.77-12.855 12.855 0 7.09 5.766 12.855 12.855 12.855h11.43c10.238 0 18.57 8.332 18.57 18.57z"
          transform="translate(-52, -50)"
          stroke="white" stroke-width="32" fill="none"/>
    <!-- Black dollar sign (thinner stroke, black fill) -->
    <path d="M74.285 65.715c0 10.242-8.332 18.57-18.57 18.57h-2.856v8.57a2.854 2.854 0 1 1-5.711 0v-8.57H31.433a2.854 2.854 0 0 1-2.855-2.856 2.854 2.854 0 0 1 2.856-2.855h24.284c7.09 0 12.855-5.77 12.855-12.855 0-7.09-5.765-12.855-12.854-12.855h-11.43c-10.239 0-18.57-8.332-18.57-18.57 0-10.242 8.331-18.57 18.57-18.57h2.855v-8.57a2.854 2.854 0 1 1 5.711 0v8.57H68.57a2.855 2.855 0 1 1 0 5.711H44.285c-7.09 0-12.855 5.77-12.855 12.855 0 7.09 5.766 12.855 12.855 12.855h11.43c10.238 0 18.57 8.332 18.57 18.57z"
          transform="translate(-52, -50)"
          stroke="black" stroke-width="6" fill="black"/>
  </g>
</svg>
