<svg xmlns="http://www.w3.org/2000/svg" width="300" height="300">
  <path d="M283.84 87.563c-11.906-32.415-37.305-58.243-69.598-70.512C163.805-2.117 111.48 9.613 76.102 44.496c-23.813 23.496-37.254 54.809-37.829 88.219-.011.094-.011.21-.011.305L7.5 133.008l41.59 60.105 41.59-60.105H59.93c0-.094 0-.211.011-.305C61.156 75.75 108.305 29.531 165.383 29.531c58.164 0 105.469 47.317 105.469 105.48 0 58.16-47.309 105.466-105.47 105.466-35.976 0-69.843-18.704-89.097-49.008l-13.062 19.195a127.71 127.71 0 0 0 38.367 34.32 127.103 127.103 0 0 0 63.808 17.149c85.442 0 151.465-84.727 118.465-174.563Zm0 0" style="stroke:none;fill-rule:evenodd;fill:#000;fill-opacity:1"/>
  <path d="m110.941 94.652 54.442 25.395 23.203-10.828 31.242-14.567-54.445-25.406Zm-7.148 76.512 55.68 25.98v-67.84l-55.68-25.964Zm67.5 25.98 55.687-25.98v-67.828l-55.687 25.969Zm0 0" style="stroke:none;fill-rule:nonzero;fill:#f90;fill-opacity:1"/>
</svg>
